<?xml version="1.0" encoding="utf-8"?>
<!-- Generator: Adobe Illustrator 24.0.3, SVG Export Plug-In . SVG Version: 6.00 Build 0)  -->
<svg version="1.1" id="Layer_1" xmlns="http://www.w3.org/2000/svg" xmlns:xlink="http://www.w3.org/1999/xlink" x="0px" y="0px"
	 viewBox="0 0 1000 1000" style="enable-background:new 0 0 1000 1000;" xml:space="preserve">
<style type="text/css">
	.st0{fill:#1F5B00;}
	.st1{fill:#338900;}
	.st2{fill:#73B74B;}
</style>
<path class="st0" d="M82.6,331.1c-93.4,230.4,17.6,492.9,248,586.3c53.8,21.8,111.3,33,169.4,33c248.7,0,450.4-201.6,450.5-450.3
	S748.9,49.6,500.2,49.6C319.9,49.6,157,157,86.1,322.7L82.6,331.1z"/>
<path class="st1" d="M853.4,727.1L830.3,704v-53.8c0-2.3-0.5-4.6-1.5-6.7l-58.6-116.9V470c0-5-2.5-9.7-6.7-12.5l-45-30
	c-3.5-2.4-7.9-3.1-12-2.1l-55.2,13.8l-92.6-39.8L546,310.1l35.3-35.3h75.8l25.5,38.4c2.3,3.4,5.9,5.8,10,6.5l90.1,15
	c2.4,0.4,4.9,0.2,7.2-0.6l83-27.7C942.5,440,935.1,600.6,853.4,727.1z"/>
<path class="st1" d="M791.5,197.5l-24.4,16.3l-68.1-13.6l-44.2-14.7c-2.7-0.9-5.6-1-8.4-0.3l-55.8,13.9l-24.5-8.2l18.1-36.3h50.8
	c2.3,0,4.6-0.5,6.7-1.6l51.9-26C729.6,145.8,762.5,169.5,791.5,197.5z"/>
<path class="st1" d="M335.6,113.2l36,24c1.8,1.2,3.8,2,5.9,2.3l72.8,12.1l-7.1,21.2l-37.9,12.7c-3.4,1.1-6.3,3.4-8.1,6.5L354,263.9
	l-69.3,41.6L182.6,320c-7.4,1-12.9,7.4-12.9,14.8v45c0,4,1.6,7.8,4.4,10.6l25.6,25.6v25.8l-62.5-41.6l-22.7-68
	C157.8,233.8,236.8,155.5,335.6,113.2z"/>
<path class="st1" d="M292.8,605.4L225,591.8l-25.2-50.3v-35.3l55.9-55.9l20.7,41.4c2.5,5.1,7.7,8.3,13.4,8.3h96.6l40.7,67.8
	c2.7,4.5,7.6,7.3,12.9,7.3h41.7l-10.5,52.7l-56.8,56.8c-2.8,2.8-4.4,6.6-4.4,10.6v37.5l-54,40.5c-3.8,2.8-6,7.3-6,12v54.2l-18.7-6.2
	l-26.4-65.9V620.1C304.9,613,299.8,606.8,292.8,605.4z"/>
<path class="st2" d="M247.7,836.2C106.2,730,46.3,546.5,98,377.3l12.5,37.4c1.1,3.2,3.1,5.9,5.9,7.7l74.8,49.9l-17.1,17.1
	c-2.8,2.8-4.4,6.6-4.4,10.6v45c0,2.3,0.5,4.6,1.6,6.7l30,60.1c2.1,4.1,6,7.1,10.5,8l63.1,12.6v137.8c0,1.9,0.4,3.8,1.1,5.6l30,75.1
	c1.6,4.1,5,7.3,9.2,8.7l45,15c1.5,0.5,3.1,0.8,4.7,0.8c8.3,0,15-6.7,15-15v-67.6l54-40.5c3.8-2.8,6-7.3,6-12v-38.8l55.7-55.7
	c2.1-2.1,3.5-4.8,4.1-7.7l15-75.1c1.6-8.1-3.6-16-11.8-17.7c-1-0.2-1.9-0.3-2.9-0.3h-51.6l-40.7-67.8c-2.7-4.5-7.6-7.3-12.9-7.3
	h-95.8l-25.8-51.8c-2.2-4.3-6.3-7.3-11-8.1c-4.8-0.8-9.6,0.7-13,4.2l-19.5,19.4v-23.8c0-4-1.6-7.8-4.4-10.6l-25.6-25.6v-25.8
	l92.2-13.2c2-0.3,3.9-1,5.6-2l75.1-45c2.1-1.3,3.9-3,5.1-5.1l42.2-70.3l39.8-13.3c4.5-1.5,8-5,9.5-9.5l15-45
	c2.6-7.9-1.7-16.4-9.5-19c-0.7-0.2-1.5-0.4-2.2-0.6l-86.9-14.5l-15.3-10.2C464.8,69.5,567.1,73.3,659,111l-27.4,13.7h-56.5
	c-5.7,0-11,3.2-13.5,8.3l-30,60.1c-3.7,7.4-0.7,16.4,6.7,20.1c0.6,0.3,1.3,0.6,2,0.8l45,15c2.7,0.9,5.6,1,8.4,0.3l55.8-13.9
	l40.9,13.6c0.6,0.2,1.2,0.4,1.8,0.5l75.1,15c3.9,0.8,8,0,11.3-2.2l34.2-22.8c16.8,18.7,31.9,38.9,45.2,60.3L784,304.4l-80-13.3
	l-26.4-39.6c-2.8-4.2-7.4-6.7-12.4-6.7h-90.1c-4,0-7.8,1.6-10.6,4.4l-45,45c-3.3,3.3-4.9,8.1-4.2,12.7l15,105.1
	c0.8,5.2,4.2,9.6,9,11.7l105.1,45c3,1.3,6.4,1.6,9.5,0.8l53.6-13.4l32.8,21.9v52c0,2.3,0.5,4.6,1.5,6.7l58.6,116.9v56.5
	c0,4,1.6,7.8,4.4,10.6l31.4,31.4C696.8,937.9,433.4,975.5,247.7,836.2z"/>
</svg>
